%TF.GenerationSoftware,KiCad,Pcbnew,9.0.0*%
%TF.CreationDate,2025-04-22T16:11:36+05:00*%
%TF.ProjectId,RF Detection Circuit,52462044-6574-4656-9374-696f6e204369,rev?*%
%TF.SameCoordinates,Original*%
%TF.FileFunction,Legend,Top*%
%TF.FilePolarity,Positive*%
%FSLAX46Y46*%
G04 Gerber Fmt 4.6, Leading zero omitted, Abs format (unit mm)*
G04 Created by KiCad (PCBNEW 9.0.0) date 2025-04-22 16:11:36*
%MOMM*%
%LPD*%
G01*
G04 APERTURE LIST*
%ADD10C,0.254000*%
%ADD11C,0.150000*%
%ADD12C,0.200000*%
%ADD13C,0.120000*%
%ADD14C,0.152400*%
G04 APERTURE END LIST*
D10*
X113062618Y-79074318D02*
X113062618Y-77804318D01*
X113062618Y-77804318D02*
X113364999Y-77804318D01*
X113364999Y-77804318D02*
X113546428Y-77864794D01*
X113546428Y-77864794D02*
X113667380Y-77985746D01*
X113667380Y-77985746D02*
X113727857Y-78106699D01*
X113727857Y-78106699D02*
X113788333Y-78348603D01*
X113788333Y-78348603D02*
X113788333Y-78530032D01*
X113788333Y-78530032D02*
X113727857Y-78771937D01*
X113727857Y-78771937D02*
X113667380Y-78892889D01*
X113667380Y-78892889D02*
X113546428Y-79013842D01*
X113546428Y-79013842D02*
X113364999Y-79074318D01*
X113364999Y-79074318D02*
X113062618Y-79074318D01*
X114997857Y-79074318D02*
X114272142Y-79074318D01*
X114634999Y-79074318D02*
X114634999Y-77804318D01*
X114634999Y-77804318D02*
X114514047Y-77985746D01*
X114514047Y-77985746D02*
X114393095Y-78106699D01*
X114393095Y-78106699D02*
X114272142Y-78167175D01*
D11*
X126534523Y-71454819D02*
X126772618Y-72454819D01*
X126772618Y-72454819D02*
X126963094Y-71740533D01*
X126963094Y-71740533D02*
X127153570Y-72454819D01*
X127153570Y-72454819D02*
X127391666Y-71454819D01*
X128153570Y-72407200D02*
X128058332Y-72454819D01*
X128058332Y-72454819D02*
X127867856Y-72454819D01*
X127867856Y-72454819D02*
X127772618Y-72407200D01*
X127772618Y-72407200D02*
X127724999Y-72311961D01*
X127724999Y-72311961D02*
X127724999Y-71931009D01*
X127724999Y-71931009D02*
X127772618Y-71835771D01*
X127772618Y-71835771D02*
X127867856Y-71788152D01*
X127867856Y-71788152D02*
X128058332Y-71788152D01*
X128058332Y-71788152D02*
X128153570Y-71835771D01*
X128153570Y-71835771D02*
X128201189Y-71931009D01*
X128201189Y-71931009D02*
X128201189Y-72026247D01*
X128201189Y-72026247D02*
X127724999Y-72121485D01*
X128772618Y-72454819D02*
X128677380Y-72407200D01*
X128677380Y-72407200D02*
X128629761Y-72311961D01*
X128629761Y-72311961D02*
X128629761Y-71454819D01*
X129296428Y-72454819D02*
X129201190Y-72407200D01*
X129201190Y-72407200D02*
X129153571Y-72311961D01*
X129153571Y-72311961D02*
X129153571Y-71454819D01*
X129439286Y-72550057D02*
X130201190Y-72550057D01*
X131010714Y-72359580D02*
X130963095Y-72407200D01*
X130963095Y-72407200D02*
X130820238Y-72454819D01*
X130820238Y-72454819D02*
X130725000Y-72454819D01*
X130725000Y-72454819D02*
X130582143Y-72407200D01*
X130582143Y-72407200D02*
X130486905Y-72311961D01*
X130486905Y-72311961D02*
X130439286Y-72216723D01*
X130439286Y-72216723D02*
X130391667Y-72026247D01*
X130391667Y-72026247D02*
X130391667Y-71883390D01*
X130391667Y-71883390D02*
X130439286Y-71692914D01*
X130439286Y-71692914D02*
X130486905Y-71597676D01*
X130486905Y-71597676D02*
X130582143Y-71502438D01*
X130582143Y-71502438D02*
X130725000Y-71454819D01*
X130725000Y-71454819D02*
X130820238Y-71454819D01*
X130820238Y-71454819D02*
X130963095Y-71502438D01*
X130963095Y-71502438D02*
X131010714Y-71550057D01*
X131582143Y-72454819D02*
X131486905Y-72407200D01*
X131486905Y-72407200D02*
X131439286Y-72359580D01*
X131439286Y-72359580D02*
X131391667Y-72264342D01*
X131391667Y-72264342D02*
X131391667Y-71978628D01*
X131391667Y-71978628D02*
X131439286Y-71883390D01*
X131439286Y-71883390D02*
X131486905Y-71835771D01*
X131486905Y-71835771D02*
X131582143Y-71788152D01*
X131582143Y-71788152D02*
X131725000Y-71788152D01*
X131725000Y-71788152D02*
X131820238Y-71835771D01*
X131820238Y-71835771D02*
X131867857Y-71883390D01*
X131867857Y-71883390D02*
X131915476Y-71978628D01*
X131915476Y-71978628D02*
X131915476Y-72264342D01*
X131915476Y-72264342D02*
X131867857Y-72359580D01*
X131867857Y-72359580D02*
X131820238Y-72407200D01*
X131820238Y-72407200D02*
X131725000Y-72454819D01*
X131725000Y-72454819D02*
X131582143Y-72454819D01*
X132344048Y-72454819D02*
X132344048Y-71788152D01*
X132344048Y-71454819D02*
X132296429Y-71502438D01*
X132296429Y-71502438D02*
X132344048Y-71550057D01*
X132344048Y-71550057D02*
X132391667Y-71502438D01*
X132391667Y-71502438D02*
X132344048Y-71454819D01*
X132344048Y-71454819D02*
X132344048Y-71550057D01*
X132963095Y-72454819D02*
X132867857Y-72407200D01*
X132867857Y-72407200D02*
X132820238Y-72311961D01*
X132820238Y-72311961D02*
X132820238Y-71454819D01*
X133867857Y-72454819D02*
X133296429Y-72454819D01*
X133582143Y-72454819D02*
X133582143Y-71454819D01*
X133582143Y-71454819D02*
X133486905Y-71597676D01*
X133486905Y-71597676D02*
X133391667Y-71692914D01*
X133391667Y-71692914D02*
X133296429Y-71740533D01*
X130454819Y-80666666D02*
X129978628Y-80999999D01*
X130454819Y-81238094D02*
X129454819Y-81238094D01*
X129454819Y-81238094D02*
X129454819Y-80857142D01*
X129454819Y-80857142D02*
X129502438Y-80761904D01*
X129502438Y-80761904D02*
X129550057Y-80714285D01*
X129550057Y-80714285D02*
X129645295Y-80666666D01*
X129645295Y-80666666D02*
X129788152Y-80666666D01*
X129788152Y-80666666D02*
X129883390Y-80714285D01*
X129883390Y-80714285D02*
X129931009Y-80761904D01*
X129931009Y-80761904D02*
X129978628Y-80857142D01*
X129978628Y-80857142D02*
X129978628Y-81238094D01*
X130454819Y-79714285D02*
X130454819Y-80285713D01*
X130454819Y-79999999D02*
X129454819Y-79999999D01*
X129454819Y-79999999D02*
X129597676Y-80095237D01*
X129597676Y-80095237D02*
X129692914Y-80190475D01*
X129692914Y-80190475D02*
X129740533Y-80285713D01*
X119571428Y-87931009D02*
X119714285Y-87978628D01*
X119714285Y-87978628D02*
X119761904Y-88026247D01*
X119761904Y-88026247D02*
X119809523Y-88121485D01*
X119809523Y-88121485D02*
X119809523Y-88264342D01*
X119809523Y-88264342D02*
X119761904Y-88359580D01*
X119761904Y-88359580D02*
X119714285Y-88407200D01*
X119714285Y-88407200D02*
X119619047Y-88454819D01*
X119619047Y-88454819D02*
X119238095Y-88454819D01*
X119238095Y-88454819D02*
X119238095Y-87454819D01*
X119238095Y-87454819D02*
X119571428Y-87454819D01*
X119571428Y-87454819D02*
X119666666Y-87502438D01*
X119666666Y-87502438D02*
X119714285Y-87550057D01*
X119714285Y-87550057D02*
X119761904Y-87645295D01*
X119761904Y-87645295D02*
X119761904Y-87740533D01*
X119761904Y-87740533D02*
X119714285Y-87835771D01*
X119714285Y-87835771D02*
X119666666Y-87883390D01*
X119666666Y-87883390D02*
X119571428Y-87931009D01*
X119571428Y-87931009D02*
X119238095Y-87931009D01*
X120238095Y-88454819D02*
X120238095Y-87788152D01*
X120238095Y-87454819D02*
X120190476Y-87502438D01*
X120190476Y-87502438D02*
X120238095Y-87550057D01*
X120238095Y-87550057D02*
X120285714Y-87502438D01*
X120285714Y-87502438D02*
X120238095Y-87454819D01*
X120238095Y-87454819D02*
X120238095Y-87550057D01*
X121142856Y-87788152D02*
X121142856Y-88597676D01*
X121142856Y-88597676D02*
X121095237Y-88692914D01*
X121095237Y-88692914D02*
X121047618Y-88740533D01*
X121047618Y-88740533D02*
X120952380Y-88788152D01*
X120952380Y-88788152D02*
X120809523Y-88788152D01*
X120809523Y-88788152D02*
X120714285Y-88740533D01*
X121142856Y-88407200D02*
X121047618Y-88454819D01*
X121047618Y-88454819D02*
X120857142Y-88454819D01*
X120857142Y-88454819D02*
X120761904Y-88407200D01*
X120761904Y-88407200D02*
X120714285Y-88359580D01*
X120714285Y-88359580D02*
X120666666Y-88264342D01*
X120666666Y-88264342D02*
X120666666Y-87978628D01*
X120666666Y-87978628D02*
X120714285Y-87883390D01*
X120714285Y-87883390D02*
X120761904Y-87835771D01*
X120761904Y-87835771D02*
X120857142Y-87788152D01*
X120857142Y-87788152D02*
X121047618Y-87788152D01*
X121047618Y-87788152D02*
X121142856Y-87835771D01*
X121380952Y-88550057D02*
X122142856Y-88550057D01*
X122952380Y-88359580D02*
X122904761Y-88407200D01*
X122904761Y-88407200D02*
X122761904Y-88454819D01*
X122761904Y-88454819D02*
X122666666Y-88454819D01*
X122666666Y-88454819D02*
X122523809Y-88407200D01*
X122523809Y-88407200D02*
X122428571Y-88311961D01*
X122428571Y-88311961D02*
X122380952Y-88216723D01*
X122380952Y-88216723D02*
X122333333Y-88026247D01*
X122333333Y-88026247D02*
X122333333Y-87883390D01*
X122333333Y-87883390D02*
X122380952Y-87692914D01*
X122380952Y-87692914D02*
X122428571Y-87597676D01*
X122428571Y-87597676D02*
X122523809Y-87502438D01*
X122523809Y-87502438D02*
X122666666Y-87454819D01*
X122666666Y-87454819D02*
X122761904Y-87454819D01*
X122761904Y-87454819D02*
X122904761Y-87502438D01*
X122904761Y-87502438D02*
X122952380Y-87550057D01*
X123523809Y-88454819D02*
X123428571Y-88407200D01*
X123428571Y-88407200D02*
X123380952Y-88359580D01*
X123380952Y-88359580D02*
X123333333Y-88264342D01*
X123333333Y-88264342D02*
X123333333Y-87978628D01*
X123333333Y-87978628D02*
X123380952Y-87883390D01*
X123380952Y-87883390D02*
X123428571Y-87835771D01*
X123428571Y-87835771D02*
X123523809Y-87788152D01*
X123523809Y-87788152D02*
X123666666Y-87788152D01*
X123666666Y-87788152D02*
X123761904Y-87835771D01*
X123761904Y-87835771D02*
X123809523Y-87883390D01*
X123809523Y-87883390D02*
X123857142Y-87978628D01*
X123857142Y-87978628D02*
X123857142Y-88264342D01*
X123857142Y-88264342D02*
X123809523Y-88359580D01*
X123809523Y-88359580D02*
X123761904Y-88407200D01*
X123761904Y-88407200D02*
X123666666Y-88454819D01*
X123666666Y-88454819D02*
X123523809Y-88454819D01*
X124285714Y-88454819D02*
X124285714Y-87788152D01*
X124285714Y-87454819D02*
X124238095Y-87502438D01*
X124238095Y-87502438D02*
X124285714Y-87550057D01*
X124285714Y-87550057D02*
X124333333Y-87502438D01*
X124333333Y-87502438D02*
X124285714Y-87454819D01*
X124285714Y-87454819D02*
X124285714Y-87550057D01*
X124904761Y-88454819D02*
X124809523Y-88407200D01*
X124809523Y-88407200D02*
X124761904Y-88311961D01*
X124761904Y-88311961D02*
X124761904Y-87454819D01*
X125809523Y-88454819D02*
X125238095Y-88454819D01*
X125523809Y-88454819D02*
X125523809Y-87454819D01*
X125523809Y-87454819D02*
X125428571Y-87597676D01*
X125428571Y-87597676D02*
X125333333Y-87692914D01*
X125333333Y-87692914D02*
X125238095Y-87740533D01*
X122500083Y-76954819D02*
X122023893Y-76954819D01*
X122023893Y-76954819D02*
X122023893Y-75954819D01*
X122785798Y-76050057D02*
X122833417Y-76002438D01*
X122833417Y-76002438D02*
X122928655Y-75954819D01*
X122928655Y-75954819D02*
X123166750Y-75954819D01*
X123166750Y-75954819D02*
X123261988Y-76002438D01*
X123261988Y-76002438D02*
X123309607Y-76050057D01*
X123309607Y-76050057D02*
X123357226Y-76145295D01*
X123357226Y-76145295D02*
X123357226Y-76240533D01*
X123357226Y-76240533D02*
X123309607Y-76383390D01*
X123309607Y-76383390D02*
X122738179Y-76954819D01*
X122738179Y-76954819D02*
X123357226Y-76954819D01*
D12*
%TO.C,D1*%
X112640000Y-74440000D02*
X115360000Y-74440000D01*
X112640000Y-82060000D02*
X112640000Y-74440000D01*
X114000000Y-74440000D02*
X114000000Y-69925000D01*
X114000000Y-82060000D02*
X112640000Y-80700000D01*
X114000000Y-86575000D02*
X114000000Y-82060000D01*
X115360000Y-74440000D02*
X115360000Y-82060000D01*
X115360000Y-82060000D02*
X112640000Y-82060000D01*
D13*
%TO.C,Well_Coil1*%
X127130000Y-67670000D02*
X127130000Y-70330000D01*
X129730000Y-67670000D02*
X127130000Y-67670000D01*
X129730000Y-67670000D02*
X129730000Y-70330000D01*
X129730000Y-70330000D02*
X127130000Y-70330000D01*
X131000000Y-67670000D02*
X132330000Y-67670000D01*
X132330000Y-67670000D02*
X132330000Y-69000000D01*
D14*
%TO.C,R1*%
X128577600Y-76969400D02*
X128577600Y-84030600D01*
X128577600Y-84030600D02*
X131422400Y-84030600D01*
X131422400Y-76969400D02*
X128577600Y-76969400D01*
X131422400Y-84030600D02*
X131422400Y-76969400D01*
D13*
%TO.C,Big_Coil1*%
X119895000Y-86830000D02*
X119895000Y-85500000D01*
X121225000Y-86830000D02*
X119895000Y-86830000D01*
X122495000Y-84170000D02*
X125095000Y-84170000D01*
X122495000Y-86830000D02*
X122495000Y-84170000D01*
X122495000Y-86830000D02*
X125095000Y-86830000D01*
X125095000Y-86830000D02*
X125095000Y-84170000D01*
D14*
%TO.C,L2*%
X116532650Y-76500000D02*
X117802650Y-76500000D01*
X117167650Y-75865000D02*
X117167650Y-77135000D01*
X127403850Y-76500000D02*
G75*
G02*
X117929650Y-76500000I-4737100J0D01*
G01*
X117929650Y-76500000D02*
G75*
G02*
X127403850Y-76500000I4737100J0D01*
G01*
%TD*%
M02*
