%TF.GenerationSoftware,KiCad,Pcbnew,9.0.0*%
%TF.CreationDate,2025-04-22T16:11:36+05:00*%
%TF.ProjectId,RF Detection Circuit,52462044-6574-4656-9374-696f6e204369,rev?*%
%TF.SameCoordinates,Original*%
%TF.FileFunction,Copper,L2,Bot*%
%TF.FilePolarity,Positive*%
%FSLAX46Y46*%
G04 Gerber Fmt 4.6, Leading zero omitted, Abs format (unit mm)*
G04 Created by KiCad (PCBNEW 9.0.0) date 2025-04-22 16:11:36*
%MOMM*%
%LPD*%
G01*
G04 APERTURE LIST*
%TA.AperFunction,ComponentPad*%
%ADD10R,1.150000X1.150000*%
%TD*%
%TA.AperFunction,ComponentPad*%
%ADD11C,1.150000*%
%TD*%
%TA.AperFunction,ComponentPad*%
%ADD12R,1.700000X1.700000*%
%TD*%
%TA.AperFunction,ComponentPad*%
%ADD13O,1.700000X1.700000*%
%TD*%
%TA.AperFunction,ComponentPad*%
%ADD14R,1.371600X1.371600*%
%TD*%
%TA.AperFunction,ComponentPad*%
%ADD15C,1.371600*%
%TD*%
%TA.AperFunction,ComponentPad*%
%ADD16R,1.422400X1.422400*%
%TD*%
%TA.AperFunction,ComponentPad*%
%ADD17C,1.422400*%
%TD*%
%TA.AperFunction,Conductor*%
%ADD18C,0.500000*%
%TD*%
G04 APERTURE END LIST*
D10*
%TO.P,D1,1,K*%
%TO.N,Net-(D1-K)*%
X114000000Y-87500000D03*
D11*
%TO.P,D1,2,A*%
%TO.N,Net-(D1-A)*%
X114000000Y-69000000D03*
%TD*%
D12*
%TO.P,Well_Coil1,1,Pin_1*%
%TO.N,Net-(D1-A)*%
X131000000Y-69000000D03*
D13*
%TO.P,Well_Coil1,2,Pin_2*%
%TO.N,Net-(D1-K)*%
X128460000Y-69000000D03*
%TD*%
D14*
%TO.P,R1,1*%
%TO.N,Net-(Big_Coil1-Pin_1)*%
X130000000Y-86342000D03*
D15*
%TO.P,R1,2*%
%TO.N,Net-(D1-A)*%
X130000000Y-74658000D03*
%TD*%
D12*
%TO.P,Big_Coil1,1,Pin_1*%
%TO.N,Net-(Big_Coil1-Pin_1)*%
X121225000Y-85500000D03*
D13*
%TO.P,Big_Coil1,2,Pin_2*%
%TO.N,GND*%
X123765000Y-85500000D03*
%TD*%
D16*
%TO.P,L2,1,1*%
%TO.N,Net-(D1-K)*%
X119771150Y-76500000D03*
D17*
%TO.P,L2,2,2*%
%TO.N,Net-(Big_Coil1-Pin_1)*%
X125562350Y-76500000D03*
%TD*%
D18*
%TO.N,Net-(D1-K)*%
X120960000Y-76500000D02*
X119771150Y-76500000D01*
X128460000Y-69000000D02*
X120960000Y-76500000D01*
%TD*%
%TA.AperFunction,Conductor*%
%TO.N,GND*%
G36*
X133942539Y-66520185D02*
G01*
X133988294Y-66572989D01*
X133999500Y-66624500D01*
X133999500Y-88875500D01*
X133979815Y-88942539D01*
X133927011Y-88988294D01*
X133875500Y-88999500D01*
X112124500Y-88999500D01*
X112057461Y-88979815D01*
X112011706Y-88927011D01*
X112000500Y-88875500D01*
X112000500Y-86877135D01*
X112924500Y-86877135D01*
X112924500Y-88122870D01*
X112924501Y-88122876D01*
X112930908Y-88182483D01*
X112981202Y-88317328D01*
X112981206Y-88317335D01*
X113067452Y-88432544D01*
X113067455Y-88432547D01*
X113182664Y-88518793D01*
X113182671Y-88518797D01*
X113317517Y-88569091D01*
X113317516Y-88569091D01*
X113324444Y-88569835D01*
X113377127Y-88575500D01*
X114622872Y-88575499D01*
X114682483Y-88569091D01*
X114817331Y-88518796D01*
X114932546Y-88432546D01*
X115018796Y-88317331D01*
X115069091Y-88182483D01*
X115075500Y-88122873D01*
X115075499Y-86877128D01*
X115069091Y-86817517D01*
X115044317Y-86751095D01*
X115018797Y-86682671D01*
X115018793Y-86682664D01*
X114932547Y-86567455D01*
X114932544Y-86567452D01*
X114817335Y-86481206D01*
X114817328Y-86481202D01*
X114682482Y-86430908D01*
X114682483Y-86430908D01*
X114622883Y-86424501D01*
X114622881Y-86424500D01*
X114622873Y-86424500D01*
X114622864Y-86424500D01*
X113377129Y-86424500D01*
X113377123Y-86424501D01*
X113317516Y-86430908D01*
X113182671Y-86481202D01*
X113182664Y-86481206D01*
X113067455Y-86567452D01*
X113067452Y-86567455D01*
X112981206Y-86682664D01*
X112981202Y-86682671D01*
X112930908Y-86817517D01*
X112924501Y-86877116D01*
X112924501Y-86877123D01*
X112924500Y-86877135D01*
X112000500Y-86877135D01*
X112000500Y-84602135D01*
X119874500Y-84602135D01*
X119874500Y-86397870D01*
X119874501Y-86397876D01*
X119880908Y-86457483D01*
X119931202Y-86592328D01*
X119931206Y-86592335D01*
X120017452Y-86707544D01*
X120017455Y-86707547D01*
X120132664Y-86793793D01*
X120132671Y-86793797D01*
X120267517Y-86844091D01*
X120267516Y-86844091D01*
X120274444Y-86844835D01*
X120327127Y-86850500D01*
X122122872Y-86850499D01*
X122182483Y-86844091D01*
X122317331Y-86793796D01*
X122432546Y-86707546D01*
X122518796Y-86592331D01*
X122568002Y-86460401D01*
X122609872Y-86404468D01*
X122675337Y-86380050D01*
X122743610Y-86394901D01*
X122771865Y-86416053D01*
X122885535Y-86529723D01*
X122885540Y-86529727D01*
X123057442Y-86654620D01*
X123246782Y-86751095D01*
X123448871Y-86816757D01*
X123515000Y-86827231D01*
X123515000Y-85933012D01*
X123572007Y-85965925D01*
X123699174Y-86000000D01*
X123830826Y-86000000D01*
X123957993Y-85965925D01*
X124015000Y-85933012D01*
X124015000Y-86827230D01*
X124081126Y-86816757D01*
X124081129Y-86816757D01*
X124283217Y-86751095D01*
X124472557Y-86654620D01*
X124644459Y-86529727D01*
X124644464Y-86529723D01*
X124794723Y-86379464D01*
X124794727Y-86379459D01*
X124919620Y-86207557D01*
X125016095Y-86018217D01*
X125081757Y-85816129D01*
X125081757Y-85816126D01*
X125092231Y-85750000D01*
X124198012Y-85750000D01*
X124230925Y-85692993D01*
X124253610Y-85608335D01*
X128813700Y-85608335D01*
X128813700Y-87075670D01*
X128813701Y-87075676D01*
X128820108Y-87135283D01*
X128870402Y-87270128D01*
X128870406Y-87270135D01*
X128956652Y-87385344D01*
X128956655Y-87385347D01*
X129071864Y-87471593D01*
X129071871Y-87471597D01*
X129206717Y-87521891D01*
X129206716Y-87521891D01*
X129213644Y-87522635D01*
X129266327Y-87528300D01*
X130733672Y-87528299D01*
X130793283Y-87521891D01*
X130928131Y-87471596D01*
X131043346Y-87385346D01*
X131129596Y-87270131D01*
X131179891Y-87135283D01*
X131186300Y-87075673D01*
X131186299Y-85608328D01*
X131179891Y-85548717D01*
X131137169Y-85434174D01*
X131129597Y-85413871D01*
X131129593Y-85413864D01*
X131043347Y-85298655D01*
X131043344Y-85298652D01*
X130928135Y-85212406D01*
X130928128Y-85212402D01*
X130793282Y-85162108D01*
X130793283Y-85162108D01*
X130733683Y-85155701D01*
X130733681Y-85155700D01*
X130733673Y-85155700D01*
X130733664Y-85155700D01*
X129266329Y-85155700D01*
X129266323Y-85155701D01*
X129206716Y-85162108D01*
X129071871Y-85212402D01*
X129071864Y-85212406D01*
X128956655Y-85298652D01*
X128956652Y-85298655D01*
X128870406Y-85413864D01*
X128870402Y-85413871D01*
X128820108Y-85548717D01*
X128813701Y-85608316D01*
X128813701Y-85608323D01*
X128813700Y-85608335D01*
X124253610Y-85608335D01*
X124265000Y-85565826D01*
X124265000Y-85434174D01*
X124230925Y-85307007D01*
X124198012Y-85250000D01*
X125092231Y-85250000D01*
X125081757Y-85183873D01*
X125081757Y-85183870D01*
X125016095Y-84981782D01*
X124919620Y-84792442D01*
X124794727Y-84620540D01*
X124794723Y-84620535D01*
X124644464Y-84470276D01*
X124644459Y-84470272D01*
X124472557Y-84345379D01*
X124283215Y-84248903D01*
X124081124Y-84183241D01*
X124015000Y-84172768D01*
X124015000Y-85066988D01*
X123957993Y-85034075D01*
X123830826Y-85000000D01*
X123699174Y-85000000D01*
X123572007Y-85034075D01*
X123515000Y-85066988D01*
X123515000Y-84172768D01*
X123514999Y-84172768D01*
X123448875Y-84183241D01*
X123246784Y-84248903D01*
X123057442Y-84345379D01*
X122885541Y-84470271D01*
X122771865Y-84583947D01*
X122710542Y-84617431D01*
X122640850Y-84612447D01*
X122584917Y-84570575D01*
X122568002Y-84539598D01*
X122518797Y-84407671D01*
X122518793Y-84407664D01*
X122432547Y-84292455D01*
X122432544Y-84292452D01*
X122317335Y-84206206D01*
X122317328Y-84206202D01*
X122182482Y-84155908D01*
X122182483Y-84155908D01*
X122122883Y-84149501D01*
X122122881Y-84149500D01*
X122122873Y-84149500D01*
X122122864Y-84149500D01*
X120327129Y-84149500D01*
X120327123Y-84149501D01*
X120267516Y-84155908D01*
X120132671Y-84206202D01*
X120132664Y-84206206D01*
X120017455Y-84292452D01*
X120017452Y-84292455D01*
X119931206Y-84407664D01*
X119931202Y-84407671D01*
X119880908Y-84542517D01*
X119874501Y-84602116D01*
X119874500Y-84602135D01*
X112000500Y-84602135D01*
X112000500Y-75740935D01*
X118559450Y-75740935D01*
X118559450Y-77259070D01*
X118559451Y-77259076D01*
X118565858Y-77318683D01*
X118616152Y-77453528D01*
X118616156Y-77453535D01*
X118702402Y-77568744D01*
X118702405Y-77568747D01*
X118817614Y-77654993D01*
X118817621Y-77654997D01*
X118952467Y-77705291D01*
X118952466Y-77705291D01*
X118959394Y-77706035D01*
X119012077Y-77711700D01*
X120530222Y-77711699D01*
X120589833Y-77705291D01*
X120724681Y-77654996D01*
X120839896Y-77568746D01*
X120926146Y-77453531D01*
X120937074Y-77424233D01*
X120975137Y-77322179D01*
X121017008Y-77266245D01*
X121067128Y-77243894D01*
X121074267Y-77242473D01*
X121178913Y-77221658D01*
X121315495Y-77165084D01*
X121364729Y-77132186D01*
X121438416Y-77082952D01*
X122116731Y-76404637D01*
X124350650Y-76404637D01*
X124350650Y-76595362D01*
X124380486Y-76783741D01*
X124439421Y-76965128D01*
X124439422Y-76965131D01*
X124499455Y-77082950D01*
X124526011Y-77135069D01*
X124638117Y-77289370D01*
X124772980Y-77424233D01*
X124927281Y-77536339D01*
X124990879Y-77568744D01*
X125097218Y-77622927D01*
X125097221Y-77622928D01*
X125187914Y-77652395D01*
X125278610Y-77681864D01*
X125466987Y-77711700D01*
X125466988Y-77711700D01*
X125657712Y-77711700D01*
X125657713Y-77711700D01*
X125846090Y-77681864D01*
X126027481Y-77622927D01*
X126197419Y-77536339D01*
X126351720Y-77424233D01*
X126486583Y-77289370D01*
X126598689Y-77135069D01*
X126685277Y-76965131D01*
X126744214Y-76783740D01*
X126774050Y-76595363D01*
X126774050Y-76404637D01*
X126744214Y-76216260D01*
X126685277Y-76034869D01*
X126685277Y-76034868D01*
X126598688Y-75864930D01*
X126486583Y-75710630D01*
X126351720Y-75575767D01*
X126197419Y-75463661D01*
X126157533Y-75443338D01*
X126027481Y-75377072D01*
X126027478Y-75377071D01*
X125846091Y-75318136D01*
X125751901Y-75303218D01*
X125657713Y-75288300D01*
X125466987Y-75288300D01*
X125404194Y-75298245D01*
X125278608Y-75318136D01*
X125097221Y-75377071D01*
X125097218Y-75377072D01*
X124927280Y-75463661D01*
X124772977Y-75575769D01*
X124638119Y-75710627D01*
X124526011Y-75864930D01*
X124439422Y-76034868D01*
X124439421Y-76034871D01*
X124380486Y-76216258D01*
X124350650Y-76404637D01*
X122116731Y-76404637D01*
X123956731Y-74564636D01*
X128813700Y-74564636D01*
X128813700Y-74751364D01*
X128842911Y-74935793D01*
X128900613Y-75113381D01*
X128985385Y-75279757D01*
X129095141Y-75430822D01*
X129227178Y-75562859D01*
X129378243Y-75672615D01*
X129544619Y-75757387D01*
X129722207Y-75815089D01*
X129906636Y-75844300D01*
X129906637Y-75844300D01*
X130093363Y-75844300D01*
X130093364Y-75844300D01*
X130277793Y-75815089D01*
X130455381Y-75757387D01*
X130621757Y-75672615D01*
X130772822Y-75562859D01*
X130904859Y-75430822D01*
X131014615Y-75279757D01*
X131099387Y-75113381D01*
X131157089Y-74935793D01*
X131186300Y-74751364D01*
X131186300Y-74564636D01*
X131157089Y-74380207D01*
X131099387Y-74202619D01*
X131014615Y-74036243D01*
X130904859Y-73885178D01*
X130772822Y-73753141D01*
X130621757Y-73643385D01*
X130455381Y-73558613D01*
X130277793Y-73500911D01*
X130277791Y-73500910D01*
X130277789Y-73500910D01*
X130149018Y-73480514D01*
X130093364Y-73471700D01*
X129906636Y-73471700D01*
X129863883Y-73478471D01*
X129722210Y-73500910D01*
X129544616Y-73558614D01*
X129378242Y-73643385D01*
X129227176Y-73753142D01*
X129095142Y-73885176D01*
X128985385Y-74036242D01*
X128900614Y-74202616D01*
X128842910Y-74380210D01*
X128828359Y-74472083D01*
X128813700Y-74564636D01*
X123956731Y-74564636D01*
X128151194Y-70370172D01*
X128212515Y-70336689D01*
X128258265Y-70335382D01*
X128353713Y-70350500D01*
X128353715Y-70350500D01*
X128566286Y-70350500D01*
X128566287Y-70350500D01*
X128776243Y-70317246D01*
X128978412Y-70251557D01*
X129167816Y-70155051D01*
X129339792Y-70030104D01*
X129453329Y-69916566D01*
X129514648Y-69883084D01*
X129584340Y-69888068D01*
X129640274Y-69929939D01*
X129657189Y-69960917D01*
X129706202Y-70092328D01*
X129706206Y-70092335D01*
X129792452Y-70207544D01*
X129792455Y-70207547D01*
X129907664Y-70293793D01*
X129907671Y-70293797D01*
X130042517Y-70344091D01*
X130042516Y-70344091D01*
X130049444Y-70344835D01*
X130102127Y-70350500D01*
X131897872Y-70350499D01*
X131957483Y-70344091D01*
X132092331Y-70293796D01*
X132207546Y-70207546D01*
X132293796Y-70092331D01*
X132344091Y-69957483D01*
X132350500Y-69897873D01*
X132350499Y-68102128D01*
X132344091Y-68042517D01*
X132342810Y-68039083D01*
X132293797Y-67907671D01*
X132293793Y-67907664D01*
X132207547Y-67792455D01*
X132207544Y-67792452D01*
X132092335Y-67706206D01*
X132092328Y-67706202D01*
X131957482Y-67655908D01*
X131957483Y-67655908D01*
X131897883Y-67649501D01*
X131897881Y-67649500D01*
X131897873Y-67649500D01*
X131897864Y-67649500D01*
X130102129Y-67649500D01*
X130102123Y-67649501D01*
X130042516Y-67655908D01*
X129907671Y-67706202D01*
X129907664Y-67706206D01*
X129792455Y-67792452D01*
X129792452Y-67792455D01*
X129706206Y-67907664D01*
X129706203Y-67907669D01*
X129657189Y-68039083D01*
X129615317Y-68095016D01*
X129549853Y-68119433D01*
X129481580Y-68104581D01*
X129453326Y-68083430D01*
X129339786Y-67969890D01*
X129167820Y-67844951D01*
X128978414Y-67748444D01*
X128978413Y-67748443D01*
X128978412Y-67748443D01*
X128776243Y-67682754D01*
X128776241Y-67682753D01*
X128776240Y-67682753D01*
X128614957Y-67657208D01*
X128566287Y-67649500D01*
X128353713Y-67649500D01*
X128305042Y-67657208D01*
X128143760Y-67682753D01*
X127941585Y-67748444D01*
X127752179Y-67844951D01*
X127580213Y-67969890D01*
X127429890Y-68120213D01*
X127304951Y-68292179D01*
X127208444Y-68481585D01*
X127142753Y-68683760D01*
X127109500Y-68893713D01*
X127109500Y-69106291D01*
X127124616Y-69201726D01*
X127115662Y-69271020D01*
X127089824Y-69308806D01*
X120988777Y-75409853D01*
X120927454Y-75443338D01*
X120857762Y-75438354D01*
X120826785Y-75421439D01*
X120811308Y-75409853D01*
X120724681Y-75345004D01*
X120724679Y-75345003D01*
X120724678Y-75345002D01*
X120589832Y-75294708D01*
X120589833Y-75294708D01*
X120530233Y-75288301D01*
X120530231Y-75288300D01*
X120530223Y-75288300D01*
X120530214Y-75288300D01*
X119012079Y-75288300D01*
X119012073Y-75288301D01*
X118952466Y-75294708D01*
X118817621Y-75345002D01*
X118817614Y-75345006D01*
X118702405Y-75431252D01*
X118702402Y-75431255D01*
X118616156Y-75546464D01*
X118616152Y-75546471D01*
X118565858Y-75681317D01*
X118559451Y-75740916D01*
X118559450Y-75740935D01*
X112000500Y-75740935D01*
X112000500Y-68915350D01*
X112924500Y-68915350D01*
X112924500Y-69084649D01*
X112950981Y-69251847D01*
X113003296Y-69412853D01*
X113080152Y-69563688D01*
X113179648Y-69700634D01*
X113179652Y-69700639D01*
X113299360Y-69820347D01*
X113299365Y-69820351D01*
X113406054Y-69897864D01*
X113436315Y-69919850D01*
X113532425Y-69968820D01*
X113587146Y-69996703D01*
X113587148Y-69996703D01*
X113587151Y-69996705D01*
X113673450Y-70024745D01*
X113748152Y-70049018D01*
X113915351Y-70075500D01*
X113915356Y-70075500D01*
X114084649Y-70075500D01*
X114251847Y-70049018D01*
X114412849Y-69996705D01*
X114563685Y-69919850D01*
X114700641Y-69820346D01*
X114820346Y-69700641D01*
X114919850Y-69563685D01*
X114996705Y-69412849D01*
X115049018Y-69251847D01*
X115075500Y-69084649D01*
X115075500Y-68915350D01*
X115049018Y-68748152D01*
X114996703Y-68587146D01*
X114968820Y-68532425D01*
X114919850Y-68436315D01*
X114907137Y-68418817D01*
X114820351Y-68299365D01*
X114820347Y-68299360D01*
X114700639Y-68179652D01*
X114700634Y-68179648D01*
X114563688Y-68080152D01*
X114563687Y-68080151D01*
X114563685Y-68080150D01*
X114516582Y-68056150D01*
X114412853Y-68003296D01*
X114251847Y-67950981D01*
X114084649Y-67924500D01*
X114084644Y-67924500D01*
X113915356Y-67924500D01*
X113915351Y-67924500D01*
X113748152Y-67950981D01*
X113587146Y-68003296D01*
X113436311Y-68080152D01*
X113299365Y-68179648D01*
X113299360Y-68179652D01*
X113179652Y-68299360D01*
X113179648Y-68299365D01*
X113080152Y-68436311D01*
X113003296Y-68587146D01*
X112950981Y-68748152D01*
X112924500Y-68915350D01*
X112000500Y-68915350D01*
X112000500Y-66624500D01*
X112020185Y-66557461D01*
X112072989Y-66511706D01*
X112124500Y-66500500D01*
X133875500Y-66500500D01*
X133942539Y-66520185D01*
G37*
%TD.AperFunction*%
%TD*%
M02*
